<svg width="343" height="219" viewBox="0 0 343 219" fill="none" xmlns="http://www.w3.org/2000/svg">
<g clip-path="url(#clip0_4330_249)">
<rect x="0.865234" y="0.0958252" width="341.746" height="218.493" rx="6.72287" fill="url(#paint0_linear_4330_249)"/>
<path opacity="0.4" d="M69.489 102.62C44.3086 102.516 20.1137 112.401 2.20891 130.109C-15.6958 147.817 -25.8492 171.904 -26.0263 197.088C-26.0444 209.511 -23.582 221.812 -18.7832 233.27C-13.9844 244.728 -6.94611 255.113 1.91897 263.814C5.67346 267.503 10.7266 269.571 15.9902 269.571C21.2538 269.571 26.3069 267.503 30.0614 263.814C31.9089 261.995 33.3761 259.827 34.3776 257.436C35.3791 255.045 35.8946 252.479 35.8946 249.886C35.8946 247.294 35.3791 244.728 34.3776 242.336C33.3761 239.945 31.9089 237.778 30.0614 235.959C24.8956 230.877 20.7928 224.818 17.9923 218.134C15.1918 211.45 13.7496 204.276 13.7496 197.029C13.7496 189.782 15.1918 182.607 17.9923 175.924C20.7928 169.24 24.8956 163.18 30.0614 158.099C40.5619 147.766 54.7022 141.975 69.4326 141.975C84.1631 141.975 98.3033 147.766 108.804 158.099C113.97 163.18 118.072 169.24 120.873 175.924C123.673 182.607 125.116 189.782 125.116 197.029C125.116 204.276 123.673 211.45 120.873 218.134C118.072 224.818 113.97 230.877 108.804 235.959C106.957 237.777 105.489 239.944 104.488 242.335C103.486 244.726 102.971 247.292 102.971 249.884C102.971 252.476 103.486 255.042 104.488 257.432C105.489 259.823 106.957 261.99 108.804 263.808C112.558 267.498 117.611 269.565 122.875 269.565C128.139 269.565 133.192 267.498 136.946 263.808C145.833 255.118 152.894 244.739 157.714 233.282C162.535 221.824 165.016 209.519 165.015 197.088C164.838 171.902 154.683 147.814 136.776 130.105C118.869 112.396 94.6712 102.513 69.489 102.62V102.62Z" fill="url(#paint1_linear_4330_249)"/>
<path d="M317.384 -59.9581C295.886 -60.0564 275.226 -51.6328 259.937 -36.5352C244.648 -21.4376 235.979 -0.898879 235.831 20.5753C235.831 42.1804 244.423 62.9006 259.717 78.1777C275.011 93.4549 295.755 102.037 317.384 102.037C339.013 102.037 359.756 93.4549 375.051 78.1777C390.345 62.9006 398.937 42.1804 398.937 20.5753C398.789 -0.898879 390.12 -21.4376 374.831 -36.5352C359.542 -51.6328 338.883 -60.0564 317.384 -59.9581V-59.9581ZM317.384 63.1094C308.982 63.014 300.796 60.4382 293.857 55.7061C286.917 50.9739 281.534 44.297 278.385 36.5157C275.236 28.7344 274.461 20.1964 276.159 11.9765C277.857 3.75661 281.952 -3.77791 287.927 -9.6787C293.902 -15.5795 301.491 -19.5828 309.739 -21.1848C317.987 -22.7868 326.525 -21.9158 334.279 -18.6816C342.032 -15.4473 348.655 -9.99429 353.312 -3.00884C357.97 3.9766 360.455 12.1823 360.455 20.5753C360.423 26.1931 359.283 31.7496 357.101 36.9274C354.919 42.1053 351.738 46.8032 347.738 50.7529C343.739 54.7026 339 57.8267 333.792 59.9468C328.583 62.0669 323.008 63.1416 317.384 63.1094Z" fill="url(#paint2_linear_4330_249)"/>
<g opacity="0.6">
<path d="M93.8753 111.805C95.0205 110.66 95.6639 109.107 95.6639 107.487C95.6639 105.868 95.0205 104.315 93.8753 103.169" stroke="white" stroke-width="2.8012" stroke-linecap="round" stroke-linejoin="round"/>
<path d="M98.5739 114.671C100.201 112.63 101.086 110.096 101.086 107.486C101.085 104.876 100.199 102.343 98.5721 100.301" stroke="white" stroke-width="2.8012" stroke-linecap="round" stroke-linejoin="round"/>
<path d="M102.716 117.497C104.895 114.632 106.08 111.135 106.091 107.535C106.101 103.936 104.937 100.432 102.774 97.5546" stroke="white" stroke-width="2.8012" stroke-linecap="round" stroke-linejoin="round"/>
<path d="M107.342 94.6132C110.138 98.4766 111.601 103.146 111.508 107.914C111.416 112.683 109.773 117.291 106.828 121.043" stroke="white" stroke-width="2.8012" stroke-linecap="round" stroke-linejoin="round"/>
</g>
<rect x="37.5607" y="89.482" width="47.4803" height="34.4469" rx="7.00299" fill="url(#paint3_linear_4330_249)" stroke="url(#paint4_linear_4330_249)" stroke-width="0.560239"/>
<mask id="mask0_4330_249" style="mask-type:alpha" maskUnits="userSpaceOnUse" x="37" y="89" width="48" height="35">
<rect x="38.1209" y="90.0423" width="46.3598" height="33.3264" rx="6.44275" fill="#DCD59E" stroke="black" stroke-width="0.560239"/>
</mask>
<g mask="url(#mask0_4330_249)">
<path opacity="0.5" fill-rule="evenodd" clip-rule="evenodd" d="M62.4059 90.8722C61.9957 90.0367 60.8046 90.0367 60.3943 90.8722L56.1782 99.459C56.1782 99.459 58.267 105.767 56.1782 112.962L60.375 122.473C60.7681 123.363 62.0321 123.363 62.4252 122.473L66.622 112.962C66.622 112.962 64.5333 109.052 66.622 99.459L62.4059 90.8722Z" stroke="#BFB985" stroke-width="0.728311" stroke-linejoin="bevel"/>
<path opacity="0.5" d="M37.3794 99.4131H56.0458" stroke="#BFB985" stroke-width="0.728311" stroke-linejoin="bevel"/>
<path opacity="0.5" d="M66.1787 99.4131H85.3784" stroke="#BFB985" stroke-width="0.728311" stroke-linejoin="bevel"/>
<path opacity="0.5" d="M37.3794 112.858H56.0458" stroke="#BFB985" stroke-width="0.728311" stroke-linejoin="bevel"/>
<path opacity="0.5" d="M66.1787 112.858H85.3784" stroke="#BFB985" stroke-width="0.728311" stroke-linejoin="bevel"/>
</g>
<path fill-rule="evenodd" clip-rule="evenodd" d="M69.6128 26.4429C69.8713 26.1773 70.0743 25.8629 70.21 25.5181C70.3457 25.1732 70.4114 24.8048 70.4034 24.4343C70.3953 24.0638 70.3135 23.6986 70.1629 23.36C70.0122 23.0214 69.7957 22.7161 69.5259 22.4621C67.8193 20.8443 65.6783 19.759 63.3647 19.3388C61.051 18.9186 58.6651 19.1817 56.4986 20.0959C54.3321 21.0102 52.479 22.5359 51.1659 24.4867C49.8528 26.4374 49.1367 28.7284 49.105 31.0797C49.1367 33.431 49.8528 35.7221 51.1659 37.6728C52.479 39.6235 54.3321 41.1493 56.4986 42.0635C58.6651 42.9778 61.051 43.2409 63.3647 42.8206C65.6783 42.4004 67.8193 41.3151 69.5259 39.6974C69.7957 39.4433 70.0122 39.1381 70.1629 38.7995C70.3135 38.4609 70.3953 38.0957 70.4034 37.7251C70.4114 37.3546 70.3457 36.9862 70.21 36.6414C70.0743 36.2965 69.8713 35.9821 69.6128 35.7165C69.0872 35.1774 68.3709 34.8664 67.6181 34.8505C66.8654 34.8345 66.1365 35.1149 65.5885 35.6312C64.3729 36.7783 62.7583 37.4069 61.087 37.3836C59.4157 37.3603 57.8192 36.687 56.6361 35.5064C56.0538 34.9256 55.5919 34.2356 55.2768 33.476C54.9616 32.7164 54.7994 31.9021 54.7994 31.0797C54.7994 30.2573 54.9616 29.443 55.2768 28.6834C55.5919 27.9238 56.0538 27.2338 56.6361 26.653C57.8192 25.4724 59.4157 24.7991 61.087 24.7758C62.7583 24.7525 64.3729 25.3811 65.5885 26.5282C66.1365 27.0446 66.8655 27.325 67.6183 27.3089C68.3711 27.2928 69.0874 26.9815 69.6128 26.4421V26.4429ZM22.831 23.0757C25.3915 20.5439 28.8514 19.1307 32.4523 19.1459C36.0532 19.1307 39.5132 20.5439 42.0737 23.0757C44.6342 25.6076 46.0863 29.0514 46.1116 32.6523C46.1117 34.4294 45.7567 36.1886 45.0674 37.8266C44.3781 39.4646 43.3685 40.9483 42.0978 42.1907C41.5609 42.7182 40.8383 43.0138 40.0856 43.0138C39.3329 43.0138 38.6104 42.7182 38.0735 42.1907C37.8093 41.9307 37.5995 41.6207 37.4563 41.2789C37.313 40.937 37.2393 40.5701 37.2393 40.1994C37.2393 39.8288 37.313 39.4618 37.4563 39.12C37.5995 38.7781 37.8093 38.4682 38.0735 38.2082C38.8123 37.4816 39.3991 36.6152 39.7996 35.6596C40.2002 34.7039 40.4064 33.678 40.4064 32.6418C40.4064 31.6056 40.2002 30.5797 39.7996 29.624C39.3991 28.6683 38.8123 27.8019 38.0735 27.0754C36.5718 25.598 34.5496 24.7701 32.4431 24.7701C30.3365 24.7701 28.3143 25.598 26.8127 27.0754C26.0738 27.8019 25.4871 28.6683 25.0865 29.624C24.686 30.5797 24.4797 31.6056 24.4797 32.6418C24.4797 33.678 24.686 34.7039 25.0865 35.6596C25.4871 36.6152 26.0738 37.4816 26.8127 38.2082C27.0768 38.4682 27.2866 38.7781 27.4299 39.12C27.5731 39.4618 27.6468 39.8288 27.6468 40.1994C27.6468 40.5701 27.5731 40.937 27.4299 41.2789C27.2866 41.6207 27.0768 41.9307 26.8127 42.1907C26.2758 42.7182 25.5532 43.0138 24.8005 43.0138C24.0478 43.0138 23.3252 42.7182 22.7884 42.1907C21.521 40.9468 20.5148 39.4623 19.8287 37.8244C19.1426 36.1865 18.7905 34.4281 18.793 32.6523C18.8183 29.0514 20.2704 25.6076 22.831 23.0757ZM84.801 19.1461C81.6184 19.1315 78.5599 20.3799 76.2966 22.6174C74.0333 24.8549 72.75 27.8988 72.728 31.0813C72.728 34.2833 74 37.3541 76.2641 39.6182C78.5282 41.8823 81.599 43.1543 84.801 43.1543C88.0029 43.1543 91.0737 41.8823 93.3378 39.6182C95.6019 37.3541 96.8739 34.2833 96.8739 31.0813C96.852 27.8988 95.5686 24.8549 93.3053 22.6174C91.0419 20.3799 87.9835 19.1315 84.801 19.1461ZM84.801 37.385C83.5572 37.3709 82.3453 36.9891 81.318 36.2878C80.2907 35.5865 79.4938 34.597 79.0276 33.4437C78.5614 32.2905 78.4468 31.0252 78.6981 29.807C78.9495 28.5888 79.5556 27.4721 80.4402 26.5976C81.3248 25.7231 82.4482 25.1298 83.6692 24.8924C84.8902 24.655 86.1542 24.784 87.302 25.2634C88.4498 25.7427 89.4302 26.5508 90.1197 27.5861C90.8092 28.6214 91.1771 29.8375 91.1771 31.0813C91.1723 31.9139 91.0036 32.7374 90.6806 33.5048C90.3576 34.2721 89.8866 34.9684 89.2946 35.5537C88.7025 36.1391 88.0009 36.6021 87.2299 36.9163C86.4589 37.2305 85.6335 37.3898 84.801 37.385ZM113.405 19.1461C109.804 19.1311 106.344 20.5444 103.784 23.0762C101.223 25.608 99.7716 29.0518 99.7463 32.6524C99.7437 34.4286 100.096 36.1873 100.782 37.8255C101.468 39.4637 102.475 40.9484 103.742 42.1924C104.279 42.72 105.002 43.0156 105.755 43.0156C106.507 43.0156 107.23 42.72 107.767 42.1924C108.031 41.9325 108.241 41.6225 108.384 41.2807C108.527 40.9388 108.601 40.5719 108.601 40.2012C108.601 39.8306 108.527 39.4636 108.384 39.1218C108.241 38.7799 108.031 38.47 107.767 38.21C107.028 37.4834 106.441 36.6171 106.041 35.6615C105.64 34.7059 105.434 33.6801 105.434 32.644C105.434 31.6078 105.64 30.5821 106.041 29.6265C106.441 28.6709 107.028 27.8045 107.767 27.078C109.268 25.6007 111.29 24.7728 113.397 24.7728C115.503 24.7728 117.525 25.6007 119.027 27.078C119.765 27.8045 120.352 28.6709 120.753 29.6265C121.153 30.5821 121.359 31.6078 121.359 32.644C121.359 33.6801 121.153 34.7059 120.753 35.6615C120.352 36.6171 119.765 37.4834 119.027 38.21C118.763 38.4699 118.553 38.7798 118.409 39.1216C118.266 39.4634 118.193 39.8302 118.193 40.2008C118.193 40.5714 118.266 40.9383 118.409 41.2801C118.553 41.6219 118.763 41.9317 119.027 42.1916C119.564 42.7192 120.286 43.0148 121.039 43.0148C121.792 43.0148 122.514 42.7192 123.051 42.1916C124.322 40.9492 125.331 39.4653 126.021 37.8272C126.71 36.189 127.065 34.4297 127.065 32.6524C127.039 29.0515 125.587 25.6075 123.027 23.0756C120.466 20.5438 117.006 19.1306 113.405 19.1461ZM64.0228 31.065C64.0314 32.619 62.7642 33.8858 61.1924 33.8945C59.6206 33.9032 58.3395 32.6505 58.3309 31.0965C58.3223 29.5425 59.5895 28.2757 61.1612 28.267C62.733 28.2583 64.0142 29.511 64.0228 31.065Z" fill="white"/>
<path d="M142.926 28.9264H137.344V42.6234H139.785V37.7132H142.926C145.967 37.7132 147.267 35.5463 147.267 33.3198C147.267 31.133 145.967 28.9264 142.926 28.9264ZM142.806 35.5264H139.785V31.0933H142.866C144.266 31.0933 144.827 32.2463 144.827 33.3198C144.827 34.433 144.246 35.5264 142.806 35.5264Z" fill="white"/>
<path d="M157.946 37.8921C157.946 34.9897 155.845 33.1409 153.164 33.1409C150.503 33.1409 148.263 35.0095 148.263 37.9716C148.263 40.874 150.383 42.8222 153.184 42.8222C154.885 42.8222 156.525 42.1066 157.386 40.7548L155.845 39.5819C155.285 40.3373 154.325 40.7349 153.304 40.7349C151.924 40.7349 150.924 40.0788 150.664 38.7867H157.886C157.926 38.4487 157.946 38.1505 157.946 37.8921ZM150.664 37.1764C150.944 35.765 151.944 35.1686 153.204 35.1686C154.505 35.1686 155.485 35.9041 155.625 37.1764H150.664Z" fill="white"/>
<path d="M161.378 31.471C162.218 31.471 162.898 30.8547 162.898 30.0595C162.898 29.2445 162.218 28.6481 161.378 28.6481C160.558 28.6481 159.877 29.2445 159.877 30.0595C159.877 30.8547 160.558 31.471 161.378 31.471ZM157.537 47.156H158.757C161.378 47.156 162.538 45.5457 162.538 42.9614V33.3397L160.218 33.3397V42.9614C160.238 44.015 159.897 45.009 158.677 45.009H157.537V47.156Z" fill="white"/>
<path d="M169.675 42.8222C172.336 42.8222 174.657 40.8939 174.657 37.9517C174.657 35.0095 172.336 33.1409 169.675 33.1409C167.014 33.1409 164.713 35.0095 164.713 37.9517C164.713 40.8939 167.014 42.8222 169.675 42.8222ZM169.675 40.6752C168.235 40.6752 167.054 39.5819 167.054 37.9517C167.054 36.3614 168.235 35.2879 169.675 35.2879C171.115 35.2879 172.316 36.3614 172.316 37.9517C172.316 39.5819 171.115 40.6752 169.675 40.6752Z" fill="white"/>
<path d="M181.806 33.3397H179.825V29.9204H177.505V33.3397H175.824V35.1885H177.505V42.6234H179.825V35.1885H181.806V33.3397Z" fill="white"/>
<path d="M190.547 33.3397V34.5722C189.907 33.5981 188.607 33.1409 187.426 33.1409C184.965 33.1409 182.845 34.9897 182.845 37.9716C182.845 40.9337 184.985 42.8222 187.446 42.8222C188.587 42.8222 189.907 42.365 190.547 41.371V42.6234H192.868V33.3397H190.547ZM187.806 40.6554C186.366 40.6554 185.185 39.5023 185.185 37.9517C185.185 36.4011 186.366 35.2879 187.806 35.2879C189.147 35.2879 190.507 36.3216 190.507 37.9517C190.507 39.5819 189.227 40.6554 187.806 40.6554Z" fill="white"/>
<path d="M306.886 182.439C305.324 181.882 303.673 181.602 302.01 181.614C296.632 181.614 292.834 184.265 292.807 188.072C292.774 190.869 295.506 192.445 297.573 193.379C299.694 194.34 300.403 194.945 300.396 195.804C300.383 197.11 298.703 197.702 297.14 197.702C294.992 197.702 293.819 197.409 292.014 196.676L291.345 196.37L290.583 200.752C291.89 201.285 294.246 201.742 296.679 201.782C302.396 201.782 306.134 199.146 306.177 195.096C306.224 192.862 304.746 191.175 301.633 189.78C299.741 188.875 298.568 188.269 298.568 187.351C298.568 186.539 299.573 185.67 301.674 185.67C303.072 185.637 304.461 185.894 305.75 186.424L306.255 186.644L307.018 182.41L306.886 182.439V182.439ZM320.841 181.969H316.64C315.332 181.969 314.348 182.321 313.776 183.591L305.697 201.509H311.414L312.556 198.571L319.534 198.577C319.698 199.265 320.202 201.509 320.202 201.509H325.244L320.841 181.969V181.969ZM285.074 181.804H290.522L287.114 201.354H281.673L285.074 181.798V181.804V181.804ZM271.244 192.579L271.808 195.294L277.132 181.969H282.903L274.329 201.482H268.572L263.867 184.96C263.79 184.687 263.611 184.453 263.366 184.305C261.67 183.447 259.873 182.796 258.015 182.367L258.089 181.956H266.858C268.048 182.002 269.005 182.367 269.325 183.611L271.24 192.589V192.579H271.244ZM314.119 194.573L316.29 189.105C316.263 189.164 316.737 187.977 317.013 187.243L317.386 188.931L318.646 194.57H314.116V194.573H314.119Z" fill="white"/>
<path d="M31.9698 191.75L29.2 201.095H27.4655L25.5024 194.023L23.4183 201.095L21.6972 201.109L19.0484 191.75H20.6754L22.6116 199.361L24.7091 191.75H26.4301L28.3798 199.32L30.3294 191.75H31.9698ZM34.7668 191.75V201.095H33.234V191.75H34.7668ZM38.3121 199.858H41.4718V201.095H36.7793V191.75H38.3121V199.858ZM44.2865 199.858H47.4463V201.095H42.7537V191.75H44.2865V199.858ZM50.2609 191.75V201.095H48.7281V191.75H50.2609ZM57.4231 201.095L53.8062 196.914V201.095H52.2734V191.75H53.8062V196.013L57.4365 191.75H59.3593L55.2987 196.43L59.4265 201.095H57.4231ZM69.9085 199.186H65.9958L65.3235 201.095H63.7235L67.0715 191.737H68.8463L72.1943 201.095H70.5808L69.9085 199.186ZM69.4783 197.935L67.9589 193.592L66.4261 197.935H69.4783ZM78.5039 201.095L76.3526 197.357H75.1828V201.095H73.65V191.75H76.877C77.5941 191.75 78.1992 191.876 78.6922 192.127C79.1941 192.378 79.5661 192.714 79.8082 193.135C80.0591 193.557 80.1846 194.027 80.1846 194.547C80.1846 195.157 80.0054 195.712 79.6468 196.214C79.2972 196.707 78.7549 197.044 78.0199 197.223L80.3325 201.095H78.5039ZM75.1828 196.134H76.877C77.4507 196.134 77.8809 195.99 78.1678 195.703C78.4636 195.417 78.6115 195.031 78.6115 194.547C78.6115 194.063 78.4681 193.687 78.1812 193.418C77.8944 193.14 77.4596 193.001 76.877 193.001H75.1828V196.134ZM87.7793 199.186H83.8666L83.1943 201.095H81.5942L84.9422 191.737H86.7171L90.0651 201.095H88.4516L87.7793 199.186ZM87.349 197.935L85.8296 193.592L84.2968 197.935H87.349ZM93.0401 191.75V197.707C93.0401 198.415 93.2239 198.948 93.5914 199.307C93.9679 199.665 94.4878 199.845 95.1511 199.845C95.8234 199.845 96.3433 199.665 96.7108 199.307C97.0873 198.948 97.2755 198.415 97.2755 197.707V191.75H98.8084V197.68C98.8084 198.442 98.6425 199.087 98.3109 199.616C97.9792 200.145 97.5355 200.539 96.9797 200.799C96.424 201.059 95.81 201.189 95.1377 201.189C94.4654 201.189 93.8514 201.059 93.2956 200.799C92.7488 200.539 92.3141 200.145 91.9914 199.616C91.6687 199.087 91.5073 198.442 91.5073 197.68V191.75H93.0401ZM105.9 191.75V198.487C105.9 199.32 105.645 199.979 105.134 200.463C104.632 200.947 103.968 201.189 103.144 201.189C102.319 201.189 101.651 200.947 101.14 200.463C100.638 199.979 100.387 199.32 100.387 198.487H101.934C101.943 198.899 102.046 199.226 102.243 199.468C102.449 199.71 102.749 199.831 103.144 199.831C103.538 199.831 103.838 199.71 104.045 199.468C104.251 199.217 104.354 198.89 104.354 198.487V191.75H105.9ZM112.656 201.189C111.786 201.189 110.984 200.988 110.249 200.584C109.523 200.172 108.945 199.603 108.515 198.877C108.093 198.142 107.883 197.317 107.883 196.403C107.883 195.488 108.093 194.668 108.515 193.942C108.945 193.216 109.523 192.651 110.249 192.248C110.984 191.836 111.786 191.629 112.656 191.629C113.534 191.629 114.337 191.836 115.063 192.248C115.798 192.651 116.376 193.216 116.797 193.942C117.218 194.668 117.429 195.488 117.429 196.403C117.429 197.317 117.218 198.142 116.797 198.877C116.376 199.603 115.798 200.172 115.063 200.584C114.337 200.988 113.534 201.189 112.656 201.189ZM112.656 199.858C113.274 199.858 113.826 199.719 114.31 199.441C114.794 199.155 115.17 198.751 115.439 198.231C115.717 197.702 115.856 197.093 115.856 196.403C115.856 195.712 115.717 195.107 115.439 194.587C115.17 194.068 114.794 193.669 114.31 193.391C113.826 193.113 113.274 192.974 112.656 192.974C112.037 192.974 111.486 193.113 111.002 193.391C110.518 193.669 110.137 194.068 109.859 194.587C109.59 195.107 109.456 195.712 109.456 196.403C109.456 197.093 109.59 197.702 109.859 198.231C110.137 198.751 110.518 199.155 111.002 199.441C111.486 199.719 112.037 199.858 112.656 199.858Z" fill="white"/>
</g>
<defs>
<linearGradient id="paint0_linear_4330_249" x1="-143.5" y1="43.0298" x2="372.351" y2="315.401" gradientUnits="userSpaceOnUse">
<stop stop-color="#00A5F0"/>
<stop offset="1" stop-color="#00D7D7"/>
</linearGradient>
<linearGradient id="paint1_linear_4330_249" x1="139.254" y1="279.751" x2="18.5344" y2="155.014" gradientUnits="userSpaceOnUse">
<stop stop-color="white"/>
<stop offset="1" stop-color="white" stop-opacity="0"/>
</linearGradient>
<linearGradient id="paint2_linear_4330_249" x1="274.516" y1="-122.779" x2="361.756" y2="88.721" gradientUnits="userSpaceOnUse">
<stop stop-color="white"/>
<stop offset="1" stop-color="white" stop-opacity="0"/>
</linearGradient>
<linearGradient id="paint3_linear_4330_249" x1="61.3008" y1="89.7621" x2="77.4622" y2="136.526" gradientUnits="userSpaceOnUse">
<stop stop-color="#DCD59E"/>
<stop offset="1" stop-color="#CBBB82"/>
</linearGradient>
<linearGradient id="paint4_linear_4330_249" x1="40.9688" y1="91.6911" x2="61.3008" y2="123.649" gradientUnits="userSpaceOnUse">
<stop stop-color="#FBF3C0"/>
<stop offset="1" stop-color="#CCBC84"/>
</linearGradient>
<clipPath id="clip0_4330_249">
<rect x="0.865234" y="0.0958252" width="341.746" height="218.493" rx="6.72287" fill="white"/>
</clipPath>
</defs>
</svg>
