<svg width="164" height="162" viewBox="0 0 164 162" fill="none" xmlns="http://www.w3.org/2000/svg">
<path opacity="0.45" d="M81.553 0.000850851C60.0546 -0.0974538 39.3946 8.32616 24.1059 23.4238C8.81711 38.5214 0.148071 59.0601 0 80.5343C0 102.139 8.59202 122.86 23.8862 138.137C39.1803 153.414 59.9238 161.996 81.553 161.996C103.182 161.996 123.925 153.414 139.22 138.137C154.514 122.86 163.106 102.139 163.106 80.5343C162.958 59.0601 154.289 38.5214 139 23.4238C123.711 8.32616 103.051 -0.0974538 81.553 0.000850851V0.000850851ZM81.553 123.068C73.1511 122.973 64.9651 120.397 58.0255 115.665C51.086 110.933 45.7029 104.256 42.5538 96.4747C39.4048 88.6934 38.6303 80.1554 40.3282 71.9355C42.0261 63.7156 46.1206 56.1811 52.0959 50.2803C58.0712 44.3795 65.6601 40.3762 73.9081 38.7742C82.156 37.1722 90.6941 38.0431 98.4476 41.2774C106.201 44.5117 112.824 49.9647 117.481 56.9501C122.139 63.9356 124.624 72.1412 124.624 80.5343C124.592 86.1521 123.452 91.7085 121.27 96.8864C119.088 102.064 115.907 106.762 111.907 110.712C107.908 114.662 103.169 117.786 97.9605 119.906C92.7523 122.026 87.1771 123.101 81.553 123.068Z" fill="url(#paint0_linear_4330_243)"/>
<defs>
<linearGradient id="paint0_linear_4330_243" x1="38.6848" y1="-62.8197" x2="125.925" y2="148.68" gradientUnits="userSpaceOnUse">
<stop stop-color="white"/>
<stop offset="1" stop-color="white" stop-opacity="0"/>
</linearGradient>
</defs>
</svg>
